{"title":"Mi Amigo Hugo (Oliver Stone) (2014) (HDTV) (Espanol)","magnet":"magnet:?xt=urn:btih:8d45fe7f6f728cf291887bc49ac8a49c5123b483&dn=Mi+Amigo+Hugo+%28Oliver+Stone%29+%282014%29+%28HDTV%29+%28Espanol%29&tr=udp%3A%2F%2Ftracker.leechers-paradise.org%3A6969&tr=udp%3A%2F%2Fzer0day.ch%3A1337&tr=udp%3A%2F%2Fopen.demonii.com%3A1337&tr=udp%3A%2F%2Ftracker.coppersurfer.tk%3A6969&tr=udp%3A%2F%2Fexodus.desync.com%3A6969","uploader":"HoT_Steppa","categoryP":"video","categoryS":"movies","size":"1094413706","seeders":"2","leechers":"3","description":"General\r\nComplete name                  : E:Mi Amigo Hugo (Oliver Stone) (2014) (HDTV) (Espanol).avi\r\nFormat                         : AVI\r\nFormat/Info                    : Audio Video Interleave\r\nFormat profile                 : OpenDML\r\nFile size                      : 1.02 GiB\r\nDuration                       : 59 min\r\nOverall bit rate               : 2 463 kb/s\r\nWriting application            : Lavf52.32.0\r\n\r\nVideo\r\nID                             : 0\r\nFormat                         : MPEG-4 Visual\r\nFormat profile                 : <a href=\"/cdn-cgi/l/email-protection\" class=\"__cf_email__\" data-cfemail=\"acffc5c1dcc0c9ece09f\">[email&#xA0;protected]</a>\r\nFormat settings, BVOP          : No\r\nFormat settings, QPel          : No\r\nFormat settings, GMC           : No warppoints\r\nFormat settings, Matrix        : Default (H.263)\r\nCodec ID                       : XVID\r\nCodec ID/Hint                  : XviD\r\nDuration                       : 59 min\r\nBit rate                       : 2 254 kb/s\r\nWidth                          : 1 280 pixels\r\nHeight                         : 720 pixels\r\nDisplay aspect ratio           : 16:9\r\nFrame rate                     : 29.970 (29970/1000) FPS\r\nColor space                    : YUV\r\nChroma subsampling             : 4:2:0\r\nBit depth                      : 8 bits\r\nScan type                      : Progressive\r\nCompression mode               : Lossy\r\nBits/(Pixel*Frame)             : 0.082\r\nStream size                    : 955 MiB (91%)\r\nWriting library                : XviD 1.2.1 (UTC 2008-12-04)\r\n\r\nAudio\r\nID                             : 1\r\nFormat                         : MPEG Audio\r\nFormat version                 : Version 1\r\nFormat profile                 : Layer 3\r\nMode                           : Joint stereo\r\nMode extension                 : MS Stereo\r\nCodec ID                       : 55\r\nCodec ID/Hint                  : MP3\r\nDuration                       : 59 min\r\nBit rate mode                  : Constant\r\nBit rate                       : 192 kb/s\r\nChannel(s)                     : 2 channels\r\nSampling rate                  : 44.1 kHz\r\nCompression mode               : Lossy\r\nStream size                    : 81.3 MiB (8%)\r\nAlignment                      : Aligned on interleaves\r\nInterleave, duration           : 26  ms (0.78 video frame)\r\nWriting library                : LAME3.98.2","last_updated":"2017-09-07T12:04:35.581Z","parsed":{"xt":"urn:btih:8d45fe7f6f728cf291887bc49ac8a49c5123b483","dn":"Mi Amigo Hugo (Oliver Stone) (2014) (HDTV) (Espanol)","tr":["udp://exodus.desync.com:6969","udp://open.demonii.com:1337","udp://tracker.coppersurfer.tk:6969","udp://tracker.leechers-paradise.org:6969","udp://zer0day.ch:1337"],"infoHash":"8d45fe7f6f728cf291887bc49ac8a49c5123b483","infoHashBuffer":{"type":"Buffer","data":[141,69,254,127,111,114,140,242,145,136,123,196,154,200,164,156,81,35,180,131]},"name":"Mi Amigo Hugo (Oliver Stone) (2014) (HDTV) (Espanol)","announce":["udp://exodus.desync.com:6969","udp://open.demonii.com:1337","udp://tracker.coppersurfer.tk:6969","udp://tracker.leechers-paradise.org:6969","udp://zer0day.ch:1337"],"urlList":[]}}